<svg xmlns="http://www.w3.org/2000/svg" version="1.1" xlink="http://www.w3.org/1999/xlink" xmlns:svgjs="http://svgjs.com/svgjs" width="240.01742380463725" height="147"><defs id="SvgjsDefs327002"/><g id="SvgjsG327003" transform="scale(0.3830849888258599)" opacity="1"><g id="SvgjsG327004" class="fVPZdkIma" transform="translate(118.15003596768817, -30.849964032311835) scale(4.325569830666275)" light-content="false" non-strokable="false" fill="#50e3c2"><path d="M7.132 7.132v60.211h6.703V13.835h62.33v62.329H19.253v.002H7.132v6.701h75.736V7.132z"/></g><g id="SvgjsG327005" class="VohuwCPwD" transform="translate(193.7694210306011, 45.22850002087418) scale(4.7659898675411725)" light-content="false" non-strokable="false" fill="#bd10e0"><path d="M19.631 10.817c.037.023.062.057.101.076l14.713 7.131c-.058-.829.289-1.504.824-1.979l-14.603-7.08c-.021-.01-.042-.008-.063-.017-.02.796-.404 1.437-.972 1.869zm-1.566.964a3.048 3.048 0 0 1-2.043.685l5.867 12.592c.49-.535 1.203-.861 1.933-.92l-5.757-12.357zm24.394 25.981a2.915 2.915 0 0 1 1.625.008c.188.015.375.046.557.099l-1.827-12.162c-.647.344-1.425.453-2.124.267l1.769 11.788zm-17.17-8.818L40.127 40.35c.095-.318.258-.594.461-.839.119-.401.333-.75.621-1.03L26.578 27.234c-.144.763-.644 1.353-1.289 1.71zm-12.855-2.512c.176.61.143 1.158-.029 1.627l9.096-.255c-.046-.109-.097-.21-.133-.331-.201-.695-.124-1.302.115-1.808l-9.254.257c.081.156.152.324.205.51zm-2.493-3.569l5.505-10.491c-.696-.187-1.303-.671-1.629-1.5L8 21.953c.733.005 1.45.288 1.941.91zM9.9 31.921l12.594 9.319c.178-.749.697-1.323 1.355-1.66L11.43 30.392c-.251.719-.836 1.247-1.53 1.529zm17.776 9.185c.23.797.103 1.486-.23 2.029l12.649.205a2.775 2.775 0 0 1-.249-.599c-.166-.577-.141-1.095.01-1.545l-12.223-.2c.012.039.03.07.043.11z"/><path d="M22.189 6.693a5.693 5.693 0 0 0-7.041-3.884 5.692 5.692 0 0 0-3.884 7.041 5.691 5.691 0 0 0 7.041 3.884 5.691 5.691 0 0 0 3.884-7.041zm26.039 10.929c-1.208-4.182-5.594-6.6-9.774-5.392-4.181 1.208-6.599 5.593-5.391 9.774 1.208 4.18 5.593 6.6 9.774 5.392 4.181-1.208 6.6-5.593 5.391-9.774zm-34.587 7.905c-1.065-3.685-4.93-5.816-8.615-4.751C1.341 21.84-.791 25.705.274 29.39a6.963 6.963 0 0 0 8.614 4.751 6.966 6.966 0 0 0 4.753-8.614zm13.988-.004a3.883 3.883 0 0 0-4.804-2.651 3.884 3.884 0 0 0-2.651 4.804 3.886 3.886 0 0 0 4.804 2.651 3.883 3.883 0 0 0 2.651-4.804zm1.423 15.045a4.286 4.286 0 0 0-5.301-2.924 4.286 4.286 0 0 0-2.924 5.301 4.283 4.283 0 0 0 5.302 2.925 4.285 4.285 0 0 0 2.923-5.302zm20.719-.589a5.829 5.829 0 0 0-7.206-3.976 5.826 5.826 0 0 0-3.978 7.207 5.828 5.828 0 0 0 7.208 3.974 5.826 5.826 0 0 0 3.976-7.205z"/></g><g id="SvgjsG327006" class="text" transform="translate(313.24, 373.5670311255103) scale(1)" light-content="false" fill="#000000"><path d="M-297.38 0.61C-294.63 0.61 -292.2 0.08 -290.09 -0.99C-287.98 -2.07 -286.33 -3.51 -285.14 -5.33C-283.95 -7.15 -283.06 -9.11 -282.46 -11.22C-281.87 -13.33 -281.57 -15.54 -281.57 -17.85C-281.57 -20.16 -281.87 -22.37 -282.46 -24.48C-283.06 -26.59 -283.95 -28.55 -285.14 -30.37C-286.33 -32.19 -287.98 -33.63 -290.09 -34.71C-292.2 -35.78 -294.63 -36.31 -297.38 -36.31C-299.62 -36.31 -301.66 -35.96 -303.48 -35.24C-305.29 -34.53 -306.8 -33.57 -307.99 -32.36C-309.18 -31.15 -310.17 -29.75 -310.97 -28.15C-311.77 -26.55 -312.35 -24.9 -312.71 -23.18C-313.06 -21.46 -313.24 -19.69 -313.24 -17.85C-313.24 -16.01 -313.06 -14.24 -312.71 -12.52C-312.35 -10.8 -311.77 -9.15 -310.97 -7.55C-310.17 -5.95 -309.18 -4.55 -307.99 -3.34C-306.8 -2.13 -305.29 -1.17 -303.48 -0.46C-301.66 0.26 -299.62 0.61 -297.38 0.61ZM-297.38 -6.89C-298.78 -6.89 -300 -7.22 -301.05 -7.88C-302.11 -8.54 -302.92 -9.43 -303.5 -10.53C-304.08 -11.64 -304.5 -12.8 -304.78 -14.02C-305.05 -15.25 -305.18 -16.52 -305.18 -17.85C-305.18 -19.62 -304.96 -21.29 -304.52 -22.87C-304.08 -24.45 -303.24 -25.85 -302 -27.06C-300.76 -28.26 -299.22 -28.87 -297.38 -28.87C-295.54 -28.87 -294.02 -28.28 -292.79 -27.11C-291.57 -25.93 -290.73 -24.56 -290.29 -22.98C-289.85 -21.39 -289.63 -19.69 -289.63 -17.85C-289.63 -16.12 -289.87 -14.46 -290.34 -12.88C-290.82 -11.3 -291.67 -9.9 -292.89 -8.7C-294.12 -7.49 -295.61 -6.89 -297.38 -6.89Z M-254.03 0L-246.64 0L-246.64 -16.93C-246.64 -20.37 -247.54 -22.85 -249.34 -24.38C-251.14 -25.91 -253.25 -26.67 -255.66 -26.67C-258.72 -26.67 -261.09 -25.67 -262.75 -23.66L-262.75 -26.06L-270.15 -26.06L-270.15 0L-262.75 0L-262.75 -13.67C-262.75 -15.67 -262.39 -17.15 -261.66 -18.1C-260.92 -19.06 -259.76 -19.53 -258.16 -19.53C-256.67 -19.53 -255.6 -19.07 -254.97 -18.13C-254.35 -17.2 -254.03 -15.67 -254.03 -13.57Z M-226.29 0.61C-223.94 0.61 -221.97 0.22 -220.37 -0.56L-219.55 -6.78C-221.05 -6.1 -222.55 -5.76 -224.04 -5.76C-224.45 -5.76 -224.8 -5.89 -225.09 -6.15C-225.38 -6.4 -225.52 -6.77 -225.52 -7.24L-225.52 -19.58L-219.86 -19.58L-219.86 -26.06L-225.52 -26.06L-225.52 -36.82L-232.87 -33.3L-232.87 -26.06L-236.44 -26.06L-236.44 -19.58L-232.87 -19.58L-232.87 -6.53C-232.87 -1.77 -230.67 0.61 -226.29 0.61Z M-197.93 0.61C-194.23 0.61 -191.3 -0.6 -189.16 -3.01C-187.02 -5.42 -185.95 -8.75 -185.95 -13C-185.95 -17.22 -187.03 -20.55 -189.18 -23C-191.34 -25.45 -194.26 -26.67 -197.93 -26.67C-201.64 -26.67 -204.58 -25.45 -206.75 -23C-208.93 -20.55 -210.02 -17.22 -210.02 -13C-210.02 -8.75 -208.94 -5.42 -206.78 -3.01C-204.62 -0.6 -201.67 0.61 -197.93 0.61ZM-197.93 -6.53C-199.36 -6.53 -200.5 -7.1 -201.35 -8.24C-202.2 -9.38 -202.62 -10.97 -202.62 -13C-202.62 -15.05 -202.2 -16.64 -201.35 -17.8C-200.5 -18.95 -199.36 -19.53 -197.93 -19.53C-196.47 -19.53 -195.34 -18.95 -194.54 -17.8C-193.74 -16.64 -193.34 -15.05 -193.34 -13C-193.34 -10.97 -193.74 -9.38 -194.54 -8.24C-195.34 -7.1 -196.47 -6.53 -197.93 -6.53Z M-163 0.61C-159.15 0.61 -155.98 -0.37 -153.46 -2.35C-150.94 -4.32 -149.68 -6.99 -149.68 -10.35C-149.68 -11.61 -149.85 -12.77 -150.17 -13.82C-150.49 -14.87 -151.01 -15.79 -151.73 -16.58C-152.44 -17.36 -153.13 -18.03 -153.79 -18.59C-154.45 -19.15 -155.36 -19.68 -156.52 -20.17C-157.67 -20.66 -158.58 -21.03 -159.25 -21.27C-159.91 -21.5 -160.85 -21.83 -162.08 -22.24C-163.23 -22.64 -164.04 -22.93 -164.5 -23.1C-164.96 -23.27 -165.55 -23.53 -166.26 -23.87C-166.97 -24.21 -167.47 -24.55 -167.74 -24.89C-168.01 -25.23 -168.15 -25.62 -168.15 -26.06C-168.15 -28 -166.7 -28.97 -163.81 -28.97C-161.02 -28.97 -159.07 -27.69 -157.95 -25.14L-151.01 -27.39C-151.73 -30 -153.17 -32.15 -155.35 -33.81C-157.52 -35.48 -160.21 -36.31 -163.4 -36.31C-167.25 -36.31 -170.29 -35.34 -172.53 -33.4C-174.78 -31.47 -175.9 -29.07 -175.9 -26.21C-175.9 -25.19 -175.76 -24.23 -175.49 -23.33C-175.22 -22.43 -174.9 -21.67 -174.55 -21.04C-174.19 -20.41 -173.66 -19.81 -172.94 -19.23C-172.23 -18.65 -171.61 -18.19 -171.1 -17.85C-170.6 -17.51 -169.85 -17.14 -168.86 -16.73C-167.88 -16.32 -167.12 -16.02 -166.59 -15.84C-166.06 -15.65 -165.27 -15.38 -164.22 -15.05C-162.62 -14.54 -161.44 -14.14 -160.68 -13.85C-159.91 -13.56 -159.18 -13.11 -158.48 -12.49C-157.79 -11.88 -157.44 -11.19 -157.44 -10.4C-157.44 -9.21 -157.91 -8.3 -158.86 -7.68C-159.82 -7.05 -161.13 -6.73 -162.79 -6.73C-164.39 -6.73 -165.85 -7.25 -167.18 -8.29C-168.5 -9.32 -169.57 -10.71 -170.39 -12.44L-177.33 -9.84C-176.24 -6.58 -174.45 -4.02 -171.95 -2.17C-169.45 -0.31 -166.46 0.61 -163 0.61Z M-128.21 0.61C-124.07 0.61 -120.68 -0.97 -118.06 -4.13L-122.35 -8.42C-123.88 -6.58 -125.83 -5.66 -128.21 -5.66C-129.68 -5.66 -130.88 -6.06 -131.83 -6.86C-132.79 -7.66 -133.3 -8.87 -133.36 -10.51L-116.69 -10.51C-116.55 -11.39 -116.48 -12.66 -116.48 -14.33C-116.48 -18.34 -117.57 -21.4 -119.75 -23.51C-121.92 -25.62 -124.75 -26.67 -128.21 -26.67C-132.02 -26.67 -135.04 -25.45 -137.27 -23C-139.49 -20.55 -140.61 -17.24 -140.61 -13.06C-140.61 -8.77 -139.5 -5.42 -137.29 -3.01C-135.08 -0.6 -132.06 0.61 -128.21 0.61ZM-133.31 -16.07C-133.14 -17.42 -132.63 -18.49 -131.78 -19.25C-130.93 -20.02 -129.85 -20.4 -128.52 -20.4C-125.6 -20.4 -123.95 -18.95 -123.57 -16.07Z M-94.35 0.61C-88.43 0.61 -84.61 -2.33 -82.87 -8.21L-89.96 -10.25C-90.75 -7.74 -92.21 -6.48 -94.35 -6.48C-95.71 -6.48 -96.83 -7.08 -97.72 -8.29C-98.6 -9.49 -99.04 -11.07 -99.04 -13C-99.04 -14.94 -98.59 -16.52 -97.69 -17.75C-96.79 -18.97 -95.64 -19.58 -94.25 -19.58C-92.24 -19.58 -90.81 -18.46 -89.96 -16.22L-82.93 -18.51C-84.63 -23.95 -88.43 -26.67 -94.35 -26.67C-98.02 -26.67 -100.97 -25.44 -103.2 -22.98C-105.43 -20.51 -106.54 -17.19 -106.54 -13C-106.54 -8.75 -105.43 -5.42 -103.22 -3.01C-101.01 -0.6 -98.06 0.61 -94.35 0.61Z M-55.69 0L-48.3 0L-48.3 -26.06L-55.69 -26.06L-55.69 -12.39C-55.69 -10.39 -56.06 -8.91 -56.79 -7.96C-57.52 -7 -58.67 -6.53 -60.23 -6.53C-61.79 -6.53 -62.88 -7 -63.49 -7.96C-64.11 -8.91 -64.41 -10.42 -64.41 -12.49L-64.41 -26.06L-71.81 -26.06L-71.81 -9.13C-71.81 -7.36 -71.53 -5.81 -70.97 -4.49C-70.41 -3.16 -69.67 -2.14 -68.75 -1.43C-67.83 -0.71 -66.88 -0.2 -65.89 0.13C-64.91 0.45 -63.89 0.61 -62.83 0.61C-59.7 0.61 -57.32 -0.39 -55.69 -2.4Z M-35.55 0L-28.15 0L-28.15 -14.13C-28.15 -17.73 -26.66 -19.53 -23.66 -19.53C-22 -19.53 -20.45 -18.94 -19.02 -17.75L-18.05 -24.48C-19.45 -25.94 -21.16 -26.67 -23.2 -26.67C-24.39 -26.67 -25.43 -26.35 -26.32 -25.7C-27.2 -25.06 -27.81 -24.4 -28.15 -23.72L-28.15 -26.06L-35.55 -26.06Z M-4.95 -28.56C-3.76 -28.56 -2.75 -28.98 -1.94 -29.81C-1.12 -30.64 -0.71 -31.64 -0.71 -32.79C-0.71 -33.98 -1.12 -34.98 -1.94 -35.78C-2.75 -36.58 -3.76 -36.97 -4.95 -36.97C-6.14 -36.97 -7.15 -36.57 -7.98 -35.75C-8.81 -34.93 -9.23 -33.95 -9.23 -32.79C-9.23 -31.64 -8.81 -30.64 -7.96 -29.81C-7.11 -28.98 -6.1 -28.56 -4.95 -28.56ZM-8.67 0L-1.27 0L-1.27 -26.06L-8.67 -26.06Z M19.38 0.61C21.73 0.61 23.7 0.22 25.3 -0.56L26.11 -6.78C24.62 -6.1 23.12 -5.76 21.62 -5.76C21.22 -5.76 20.87 -5.89 20.58 -6.15C20.29 -6.4 20.15 -6.77 20.15 -7.24L20.15 -19.58L25.81 -19.58L25.81 -26.06L20.15 -26.06L20.15 -36.82L12.8 -33.3L12.8 -26.06L9.23 -26.06L9.23 -19.58L12.8 -19.58L12.8 -6.53C12.8 -1.77 14.99 0.61 19.38 0.61Z M39.63 9.89L47.28 9.89L61.15 -26.06L53.55 -26.06L48.3 -12.14C47.92 -11.12 47.65 -10.3 47.48 -9.69C47.31 -10.3 47.04 -11.12 46.67 -12.14L41.36 -26.06L33.71 -26.06L43.55 -0.31Z M85.07 0.61C89.01 0.61 92.23 -0.65 94.73 -3.16C97.23 -5.68 98.48 -9.16 98.48 -13.62L98.48 -19.23L84.71 -19.23L84.71 -11.83L90.53 -11.83L90.53 -11.58C90.53 -10.32 89.98 -9.21 88.89 -8.26C87.8 -7.31 86.53 -6.83 85.07 -6.83C82.48 -6.83 80.55 -7.9 79.28 -10.02C78 -12.15 77.37 -14.76 77.37 -17.85C77.37 -19.65 77.58 -21.34 78 -22.9C78.43 -24.46 79.25 -25.85 80.48 -27.06C81.7 -28.26 83.23 -28.87 85.07 -28.87C87.41 -28.87 89.54 -27.35 91.44 -24.33L98.23 -28.15C96.66 -30.67 94.87 -32.66 92.85 -34.12C90.82 -35.58 88.23 -36.31 85.07 -36.31C82.48 -36.31 80.15 -35.76 78.08 -34.65C76.01 -33.55 74.35 -32.1 73.11 -30.29C71.87 -28.49 70.92 -26.53 70.28 -24.4C69.63 -22.28 69.31 -20.09 69.31 -17.85C69.31 -15.44 69.62 -13.16 70.25 -11.02C70.88 -8.87 71.81 -6.92 73.03 -5.15C74.26 -3.38 75.9 -1.98 77.98 -0.94C80.05 0.09 82.42 0.61 85.07 0.61Z M109.5 0L116.89 0L116.89 -14.13C116.89 -17.73 118.39 -19.53 121.38 -19.53C123.05 -19.53 124.59 -18.94 126.02 -17.75L126.99 -24.48C125.6 -25.94 123.88 -26.67 121.84 -26.67C120.65 -26.67 119.61 -26.35 118.73 -25.7C117.84 -25.06 117.23 -24.4 116.89 -23.72L116.89 -26.06L109.5 -26.06Z M151.01 0L158.36 0L158.36 -16.47C158.36 -23.27 154.67 -26.67 147.29 -26.67C143.04 -26.67 139.32 -25.58 136.12 -23.41L138.41 -17.75C141.17 -19.58 143.96 -20.5 146.78 -20.5C148.1 -20.5 149.14 -20.19 149.89 -19.56C150.64 -18.93 151.01 -18.02 151.01 -16.83L151.01 -15.4C149.65 -16.01 147.75 -16.32 145.3 -16.32C142.48 -16.32 140.01 -15.6 137.9 -14.15C135.8 -12.71 134.74 -10.64 134.74 -7.96C134.74 -5.2 135.65 -3.09 137.47 -1.61C139.29 -0.13 141.64 0.61 144.53 0.61C147.29 0.61 149.45 -0.24 151.01 -1.94ZM145.96 -5.61C143.31 -5.61 141.98 -6.38 141.98 -7.9C141.98 -9.57 143.51 -10.4 146.57 -10.4C148.17 -10.4 149.65 -10.2 151.01 -9.79L151.01 -7.45C149.48 -6.22 147.8 -5.61 145.96 -5.61Z M183.14 0.61C186.3 0.61 188.9 -0.61 190.94 -3.06C192.98 -5.51 194 -8.82 194 -13C194 -17.39 193.03 -20.77 191.07 -23.13C189.12 -25.49 186.51 -26.67 183.24 -26.67C180.9 -26.67 179.15 -25.87 177.99 -24.28L177.99 -26.06L170.6 -26.06L170.6 10.15L177.99 6.83L177.99 -1.68C179.18 -0.15 180.9 0.61 183.14 0.61ZM181.97 -6.53C180.95 -6.53 180.08 -6.7 179.37 -7.04C178.65 -7.38 178.19 -7.77 177.99 -8.21L177.99 -17.95C178.98 -19.01 180.3 -19.53 181.97 -19.53C185.06 -19.53 186.61 -17.36 186.61 -13C186.61 -10.97 186.2 -9.38 185.39 -8.24C184.57 -7.1 183.43 -6.53 181.97 -6.53Z M205.48 0L212.87 0L212.87 -14.08C212.87 -17.71 214.4 -19.53 217.46 -19.53C218.96 -19.53 220.02 -19.09 220.65 -18.21C221.28 -17.32 221.6 -15.91 221.6 -13.97L221.6 0L228.99 0L228.99 -16.93C228.99 -20.37 228.09 -22.85 226.29 -24.38C224.49 -25.91 222.38 -26.67 219.96 -26.67C216.9 -26.67 214.54 -25.67 212.87 -23.66L212.87 -36.82L205.48 -33.4Z M241.49 -35.7L241.49 0L254.44 0C256.96 0 259.23 -0.37 261.27 -1.1C263.31 -1.83 265 -2.78 266.32 -3.95C267.65 -5.13 268.75 -6.5 269.64 -8.08C270.52 -9.66 271.15 -11.26 271.52 -12.88C271.9 -14.49 272.09 -16.15 272.09 -17.85C272.09 -20.16 271.75 -22.36 271.09 -24.43C270.43 -26.5 269.42 -28.4 268.08 -30.12C266.74 -31.83 264.91 -33.19 262.6 -34.2C260.29 -35.2 257.63 -35.7 254.64 -35.7ZM255.26 -7.39L249.24 -7.39L249.24 -28.36L255.82 -28.36C258.47 -28.36 260.5 -27.3 261.91 -25.19C263.32 -23.09 264.03 -20.64 264.03 -17.85C264.03 -15.06 263.3 -12.62 261.83 -10.53C260.37 -8.44 258.18 -7.39 255.26 -7.39Z M283.51 -35.7L283.51 0L301 0C305.18 0 308.28 -1.05 310.28 -3.14C312.29 -5.23 313.29 -7.75 313.29 -10.71C313.29 -12.34 312.86 -13.91 311.99 -15.4C311.13 -16.9 309.83 -17.97 308.09 -18.62C310.78 -19.87 312.12 -22.34 312.12 -26.01C312.12 -28.76 311.18 -31.07 309.29 -32.92C307.4 -34.77 304.42 -35.7 300.34 -35.7ZM299.57 -21.78L291.26 -21.78L291.26 -28.46L300.39 -28.46C302.94 -28.46 304.21 -27.35 304.21 -25.14C304.21 -22.9 302.67 -21.78 299.57 -21.78ZM301.36 -7.29L291.26 -7.29L291.26 -14.79L299.98 -14.79C303.62 -14.79 305.44 -13.48 305.44 -10.86C305.44 -9.91 305.12 -9.08 304.47 -8.36C303.82 -7.65 302.79 -7.29 301.36 -7.29Z"/></g><g id="SvgjsG327007" class="ouRZV2gYd" transform="translate(98.33333333333331, 214.70674666686415) scale(0.9829047619047615)" light-content="false" non-strokable="false" fill="#f8cc1c"><path d="M60.5 41.338V26.5C60.5 11.888 48.612 0 34 0S7.5 11.888 7.5 26.5v14.838L0 42v55l34 3 34-3V42l-7.5-.662zm-45-.705V26.5C15.5 16.299 23.799 8 34 8s18.5 8.299 18.5 18.5v14.133L34 39l-18.5 1.633z"/></g></g></svg>